# xmcd
#
# Track frame offsets:
#	150
#	18491
#	39057
#	60091
#	80556
#	101044
#	120941
#	141464
#	165946
#	182293
#	213733
#
# Disc length: 4676 seconds
# Revision: 0
# Processed by: cddbd v1.5.2PL0 Copyright (c) Steve Scherf et al.
# Submitted via: dBpowerAMP V12.0
#
DISCID=8112420b
DTITLE=The Smoky Greenwell Band - 99% Blues
DYEAR=2012
DGENRE=Blues
TTITLE0=99% Blues
TTITLE1=Peter Gunn Theme
TTITLE2=Power Of Now
TTITLE3=My Own Blues Club
TTITLE4=Call Me The Breeze
TTITLE5=Heavy Sugar
TTITLE6=Young Fashioned Ways
TTITLE7=Need A Friend
TTITLE8=Don't Lose Your Cool
TTITLE9=Ice Cream Man
TTITLE10=DATA
EXTD=
EXTT0=
EXTT1=
EXTT2=
EXTT3=
EXTT4=
EXTT5=
EXTT6=
EXTT7=
EXTT8=
EXTT9=
EXTT10=
PLAYORDER=
